<mxfile host="app.diagrams.net" modified="2023-07-15T03:15:44.633Z" agent="Mozilla/5.0 (Windows NT 10.0; Win64; x64) AppleWebKit/537.36 (KHTML, like Gecko) Chrome/114.0.0.0 Safari/537.36" etag="h3F_dB1jSt5Y5J5Zgeqn" version="21.6.2" type="device">
  <diagram name="ページ1" id="Z6RcgbeixhTnH37d8OWW">
    <mxGraphModel dx="1243" dy="571" grid="1" gridSize="10" guides="1" tooltips="1" connect="1" arrows="1" fold="1" page="1" pageScale="1" pageWidth="827" pageHeight="1169" math="0" shadow="0">
      <root>
        <mxCell id="0" />
        <mxCell id="1" parent="0" />
        <mxCell id="rH_VrxtAMNJPtBK8b8Mf-1" value="" style="whiteSpace=wrap;html=1;aspect=fixed;" vertex="1" parent="1">
          <mxGeometry x="80" y="80" width="720" height="720" as="geometry" />
        </mxCell>
        <mxCell id="rH_VrxtAMNJPtBK8b8Mf-2" value="&lt;font style=&quot;font-size: 36px;&quot;&gt;タイトル&lt;/font&gt;" style="rounded=0;whiteSpace=wrap;html=1;" vertex="1" parent="1">
          <mxGeometry x="130" y="100" width="400" height="80" as="geometry" />
        </mxCell>
        <mxCell id="rH_VrxtAMNJPtBK8b8Mf-4" value="" style="rounded=1;whiteSpace=wrap;html=1;" vertex="1" parent="1">
          <mxGeometry x="100" y="260" width="230" height="500" as="geometry" />
        </mxCell>
        <mxCell id="rH_VrxtAMNJPtBK8b8Mf-5" value="" style="rounded=1;whiteSpace=wrap;html=1;" vertex="1" parent="1">
          <mxGeometry x="360" y="260" width="420" height="250" as="geometry" />
        </mxCell>
        <mxCell id="rH_VrxtAMNJPtBK8b8Mf-6" value="リスト作成ボタン" style="rounded=1;whiteSpace=wrap;html=1;" vertex="1" parent="1">
          <mxGeometry x="140" y="670" width="150" height="60" as="geometry" />
        </mxCell>
        <mxCell id="rH_VrxtAMNJPtBK8b8Mf-7" value="発表順リスト" style="rounded=1;whiteSpace=wrap;html=1;" vertex="1" parent="1">
          <mxGeometry x="120" y="280" width="190" height="370" as="geometry" />
        </mxCell>
        <mxCell id="rH_VrxtAMNJPtBK8b8Mf-8" value="スタート" style="rounded=1;whiteSpace=wrap;html=1;" vertex="1" parent="1">
          <mxGeometry x="370" y="450" width="110" height="30" as="geometry" />
        </mxCell>
        <mxCell id="rH_VrxtAMNJPtBK8b8Mf-9" value="リセット" style="rounded=1;whiteSpace=wrap;html=1;" vertex="1" parent="1">
          <mxGeometry x="660" y="450" width="90" height="30" as="geometry" />
        </mxCell>
        <mxCell id="rH_VrxtAMNJPtBK8b8Mf-10" value="&lt;font style=&quot;font-size: 36px;&quot;&gt;mm : ss&lt;/font&gt;" style="rounded=1;whiteSpace=wrap;html=1;" vertex="1" parent="1">
          <mxGeometry x="380" y="280" width="380" height="130" as="geometry" />
        </mxCell>
        <mxCell id="rH_VrxtAMNJPtBK8b8Mf-12" value="ストップ" style="rounded=1;whiteSpace=wrap;html=1;" vertex="1" parent="1">
          <mxGeometry x="510" y="450" width="100" height="30" as="geometry" />
        </mxCell>
        <mxCell id="rH_VrxtAMNJPtBK8b8Mf-14" value="m+" style="ellipse;whiteSpace=wrap;html=1;aspect=fixed;" vertex="1" parent="1">
          <mxGeometry x="430" y="420" width="20" height="20" as="geometry" />
        </mxCell>
        <mxCell id="rH_VrxtAMNJPtBK8b8Mf-15" value="m-" style="ellipse;whiteSpace=wrap;html=1;aspect=fixed;" vertex="1" parent="1">
          <mxGeometry x="460" y="420" width="20" height="20" as="geometry" />
        </mxCell>
        <mxCell id="rH_VrxtAMNJPtBK8b8Mf-16" value="s+" style="ellipse;whiteSpace=wrap;html=1;aspect=fixed;" vertex="1" parent="1">
          <mxGeometry x="650" y="420" width="20" height="20" as="geometry" />
        </mxCell>
        <mxCell id="rH_VrxtAMNJPtBK8b8Mf-17" value="s-" style="ellipse;whiteSpace=wrap;html=1;aspect=fixed;" vertex="1" parent="1">
          <mxGeometry x="680" y="420" width="20" height="20" as="geometry" />
        </mxCell>
        <mxCell id="rH_VrxtAMNJPtBK8b8Mf-18" value="" style="rounded=1;whiteSpace=wrap;html=1;" vertex="1" parent="1">
          <mxGeometry x="360" y="520" width="420" height="240" as="geometry" />
        </mxCell>
      </root>
    </mxGraphModel>
  </diagram>
</mxfile>
